<svg width="36" height="36" xmlns="http://www.w3.org/2000/svg">

 <g>
  <title>background</title>
  <rect fill="none" id="canvas_background" height="38" width="38" y="-1" x="-1"/>
 </g>
 <g class="layer">
  <title>Layer 1</title>
  <g id="svg_1" class="layer">
   <path id="svg_6" fill="#ef7b6e" d="m31.57336,26.955c-2.11,5.28 -7.42,8.7 -13.63,8.7c-5.35,0 -11.31,-3.31 -13.42,-8.59l-0.08,-0.18c-0.67,-1.66 -0.56,-3.69 -0.56,-5.59l2.16,-18.76l6,5.84a14.35,14.35 0 0 1 5.59,-1.12l0.62,0a14.35,14.35 0 0 1 5.59,1.12l6.6,-6.42l2.18,19.64a14.27,14.27 0 0 1 -1.04,5.36"/>
   <path id="svg_7" fill="#e94d35" d="m17.94336,35.155c6.23,0.2 11.96,-3.4 14.07,-8.68l0.07,-0.14c0.67,-1.65 0.56,-3.99 0.56,-5.89l-2.2,-18.99"/>
   <path id="svg_8" fill="#b399c8" d="m5.06336,10.615l-0.48,4.73l27.13,-1.64l-0.29,-2.46l-26.36,-0.63z"/>
   <path id="svg_9" fill="#b399c8" d="m33.31336,12.515a2,2 0 1 1 -2,-2a2,2 0 0 1 2,2"/>
   <path id="svg_10" fill="#fff" d="m29.48336,17.885s-8.17,3.41 -7.78,3.84c7.81,7.02 8.43,-2.86 7.78,-3.84zm-22.44,0s7.56,4.01 7.78,3.84c-7.54,7.39 -8.54,-2.23 -7.78,-3.84zm29.09,26.77a3.42,3.42 0 0 1 -2.85,2c-1.1,0 -1.62,-0.9 -1.15,-2a3.42,3.42 0 0 1 2.85,-2c1.1,0 1.62,0.89 1.15,2"/>
   <g id="svg_11">
    <path stroke-width="1.8" stroke-linejoin="round" stroke-linecap="round" stroke="#000" id="svg_14" fill="none" d="m20.70336,27.875l-2.44,-3.02m-2.44,3.02l2.44,-3.02m-2.44,0l4.88,0"/>
    <path stroke-width="2" stroke-linejoin="round" stroke-linecap="round" stroke="#000" id="svg_15" fill="none" d="m32.18336,16.155l0.44,4.18a13.66,13.66 0 0 1 -1.02,5.19m-26.68,0a13.66,13.66 0 0 1 -1.01,-5.19l2.13,-18.99l6.45,6.21a14.18,14.18 0 0 1 5.46,-1.08l0.62,0a14.18,14.18 0 0 1 5.46,1.08l6.45,-6.21l0.66,6.4"/>
    <path stroke-width="1.8" stroke-linejoin="round" stroke-linecap="round" stroke="#000" id="svg_16" fill="none" d="m10.52336,32.005a14.12,14.12 0 0 0 7.43,2.1l0.62,0a14.12,14.12 0 0 0 7.43,-2.1"/>
    <ellipse ry="1.21" rx="1.22" id="svg_17" cy="20.035" cx="10.93336"/>
    <ellipse ry="1.21" rx="1.22" id="svg_18" cy="20.035" cx="25.59336"/>
    <path stroke-width="1.6" stroke-linejoin="round" stroke-linecap="round" stroke="#000" id="svg_19" fill="none" d="m29.48336,17.235s-8.17,3.4 -7.78,3.84c7.81,7.01 8.43,-2.87 7.78,-3.84zm3.85,12.24l-5.5,-3.01m3.26,5.63l-5.5,-3.02m-18.55,-11.84s7.56,4.01 7.78,3.84c-7.54,7.38 -8.54,-2.24 -7.78,-3.84zm-3.85,12.24l5.5,-3.01m-3.26,5.63l5.5,-3.02m18.48,-18.51l-24.35,-0.58l-0.48,4.72l24.84,-1.5"/>
    <path stroke-width="1.6" stroke-linejoin="round" stroke-linecap="round" stroke="#000" id="svg_20" fill="none" d="m32.91336,11.885a2,2 0 1 1 -2,-2a2,2 0 0 1 2,2"/>
   </g>
  </g>
 </g>
</svg>